<?xml version="1.0" encoding="UTF-8"?>
<svg id="Camada_1" data-name="Camada 1" xmlns="http://www.w3.org/2000/svg" viewBox="0 0 469.5022 446.4746">
  <defs>
    <style>
      .cls-1, .cls-2, .cls-3 {
        fill: #293170;
      }

      .cls-1, .cls-2, .cls-4 {
        stroke-width: 0px;
      }

      .cls-2, .cls-4 {
        opacity: .23;
      }

      .cls-3 {
        font-family: CreamCake, 'Cream Cake';
        font-size: 126.5305px;
      }

      .cls-5 {
        stroke: #293170;
        stroke-miterlimit: 10;
      }

      .cls-5, .cls-4 {
        fill: #fff;
      }
    </style>
  </defs>
  <g>
    <path class="cls-1" d="M345.6856,112.9838s-21.9827,58.2897-32.8092,82.5398c-10.8279,24.2472-19.8756,45.6969-8.0508,49.3435,11.8247,3.6475,20.1583-29.2017,23.3111-45.2041,3.1538-16.0061,18.1079-72.5025,23.6588-84.7947,0,0,.4433-1.5468,3.7403-2.3635,3.293-.8144,9.0647-3.1523,12.6776-6.2001,3.6128-3.0432,28.9871-24.2438,17.1416-64.2936,0,0-6.294-19.8461-23.3355-6.6358,0,0-35.8186,26.4129-23.3345,63.1511,0,0,3.3193,7.7515,5.2905,9.9716,1.5071,1.6967,2.0207,2.9831,1.71,4.4858Z"/>
    <path class="cls-2" d="M369.0459,31.4606s-3.2238,64.2596-28.5996,70.9207c0,0-10.2726-17.1667.5521-41.0632,0,0,12.3628-23.851,28.0475-29.8575Z"/>
    <path class="cls-4" d="M374.8225,31.0302s25.7896,37.1665-19.2866,81.4746c0,0,21.6128-4.276,30.1328-32.0114,8.5222-27.7362-1.1963-46.55-10.8462-49.4632Z"/>
  </g>
  <g>
    <path class="cls-1" d="M94.4641,139.0084s28.035,62.8568,40.8119,82.5377c8.6534,13.3309,15.2912,33.6561,3.2066,37.8707-12.6314,4.4064-20.7891-21.7965-23.0244-32.23-2.2352-10.4326-25.1121-80.0839-28.1952-87.1653-3.0806-7.0772-8.9947-10.4559-14.5429-14.3828-5.5476-3.926-10.2023-7.1448-14.7528-20.3361-4.5505-13.1938-12.2958-39.8614-12.2958-39.8614l1.934-.6747,16.9186,37.2928s1.2292,2.247,2.5515,1.7855c1.3225-.4623,1.1634-1.4576.4377-3.3059-.7234-1.8502-14.2099-37.7614-14.2099-37.7614l2.375-.8277,16.4933,36.0078s1.4215,3.039,2.8457,2.5425c1.4269-.4969.8838-2.7701.5196-3.6959-.3617-.9233-14.3974-36.7588-14.3974-36.7588l2.4338-.8503,16.4911,37.0598s1.1956,2.1633,3.0258,1.5247c1.8342-.6389,1.1059-2.202.6788-3.2945-.4281-1.0934-14.997-37.1025-14.997-37.1025l1.832-.6396s16.2174,25.7516,21.8938,39.061c5.6754,13.3113,4.2323,17.8928,2.4159,23.4961-1.8165,5.6016-2.5706,14.5832-.4498,19.7084Z"/>
    <path class="cls-1" d="M93.6381,136.1669c-.388.7706,22.0487,49.7757,29.999,63.341,7.0956,12.1055,33.3559,53.4487,15.0254,59.8443,0,0,5.8114-6.6627-5.1851-29.2363,0,0-13.6649-27.9984-16.6984-33.2396-2.8687-4.9559-15.9594-36.2736-23.3486-56.8776,0,0-.3165-2.7901.2077-3.8318Z"/>
    <path class="cls-2" d="M45.6717,65.4412l10.9648,36.648s4.5372,14.8241,11.128,19.7561c6.5891,4.9303,15.1729,10.8894,17.0866,14.0032,0,0-1.6574-20.3869-17.2708-32.2583,0,0-1.7576,1.3403-3.3998-2.0967-1.6405-3.4387-16.5748-36.7271-16.5748-36.7271l-1.934.6747Z"/>
    <path class="cls-1" d="M70.6043,56.7428l19.3944,33.7076s8.3756,14.8547,6.4345,22.5645c-1.9936,7.9173-3.9224,16.0506-3.2122,19.5867,0,0,1.5798-28.1606-9.9322-34.9033,0,0,1.7031-.3058.6339-3.0313-1.3843-3.5337-15.1985-37.2673-15.1985-37.2673l1.8801-.6569Z"/>
  </g>
  <g>
    <path class="cls-1" d="M229.4439,214.5395l-1.9033-206.6139s-.1832-7.9256-1.7425-7.9256c0,0-9.286.063-11.5284,33.517-2.1063,31.4088-5.6151,81.9714,5.3684,99.1421,0,0,3.284,8.6784.5793,31.3405-2.2617,18.9532-9.0995,73.2331,2.305,73.2331,0,0,6.9215.0217,6.9215-22.6933Z"/>
    <path class="cls-1" d="M228.6246,125.6093s.6408,28.0152.4024,43.6742c-.2357,15.4106,4.4906,67.9276-6.5045,67.9493,0,0,3.8028-4.9643,4.2098-32.5535-.4725-63.2446.2843-63.3986.2843-66.5275,0,0,1.5934-11.8124,1.6079-12.5424Z"/>
    <path class="cls-4" d="M225.7982,0s-8.009,2.4889-10.8391,25.9152c-2.8307,23.4263-5.7083,90.9259,3.1141,103.8612,0,0,7.4961-56.8814,7.725-129.7764Z"/>
  </g>
  <path class="cls-5" d="M81.3389,239.1694v-18.6269h21.8227s-6.6253-46.989,133.5233-46.989c123.3146,0,128.8315,44.0522,127.1751,46.989h24.0972v18.6269s81.045.8261,81.045,74.2851c0,0-6.4682,66.908-81.045,66.908v16.9227h-24.0972s2.0708,48.6894-129.1062,48.6894-131.5921-44.2227-131.5921-48.6894h-21.8227l.026-17.2643S.5,377.6818.5,309.7623c0,0,1.4913-68.1054,80.8389-70.5929Z"/>
  <path class="cls-1" d="M88.3431,243.8995v-17.5058h20.8277s-6.3192-44.1524,127.4246-44.1524c117.681,0,122.9483,41.3937,121.3688,44.1524h22.9963v17.5058s77.3406.7834,77.3406,69.8113c0,0-6.1684,62.8759-77.3406,62.8759v15.8981h-22.9963s1.9751,45.7562-123.2104,45.7562-125.5829-41.5572-125.5829-45.7562h-20.8277l.029-16.2194s-77.1688-2.1998-77.1688-66.0242c0,0,1.4204-63.999,77.1398-66.3417ZM20.2021,310.2412c0,60.2305,74.405,62.3096,74.405,62.3096l-.0271,15.3041h20.0819c0,3.9578.3755,43.1759,121.0762,43.1759s118.7923-43.1759,118.7923-43.1759h22.1733v-15.007c68.6175,0,74.5674-59.3303,74.5674-59.3303,0-65.1405-74.5674-65.8813-74.5674-65.8813v-16.5199h-22.1733c1.5233-2.6009-3.5506-41.661-117.0129-41.661-128.9513,0-122.8556,41.661-122.8556,41.661h-20.0819v16.5199c-73.0056,2.2072-74.378,62.6048-74.378,62.6048Z"/>
  <text class="cls-3" transform="translate(87.2515 335.4787) scale(.926 1)"><tspan x="0" y="0">ServeFixe</tspan></text>
  <path class="cls-4" d="M329.3325,400.6179c-.3634-.2778-31.5829,2.337-40.523,3.8735-7.9775,1.3716-35.5861,6.6431-35.9854-1.3309,0,0,2.7218,2.8639,17.2127,1.2763,0,0,17.9769-1.9786,21.4241-2.556,3.2604-.5462,24.5575-1.7335,37.3284-2.0294,0,0,.0525.3897.5433.7665Z"/>
</svg>